<svg version="1.1" xmlns="http://www.w3.org/2000/svg" xmlns:xlink="http://www.w3.org/1999/xlink" width="1497.63902" height="232.69463" viewBox="0,0,1497.63902,232.69463"><g transform="translate(508.81951,-64.55682)"><g data-paper-data="{&quot;isPaintingLayer&quot;:true}" fill-rule="nonzero" stroke-linejoin="miter" stroke-miterlimit="10" stroke-dasharray="" stroke-dashoffset="0" style="mix-blend-mode: normal"><path d="M-508.81951,293.64186v-229.07611h1497.63902v229.07611z" fill="#2d2d2d" stroke="none" stroke-width="0" stroke-linecap="butt"/><path d="M540.39224,210.43967v-114.53805h393.31935v114.53805z" fill="#ffffff" stroke="none" stroke-width="0" stroke-linecap="butt"/><text transform="translate(593.33907,186.52101) scale(1.88799,1.88799)" font-size="40" xml:space="preserve" fill="#000000" fill-rule="nonzero" stroke="none" stroke-width="1" stroke-linecap="butt" stroke-linejoin="miter" stroke-miterlimit="10" stroke-dasharray="" stroke-dashoffset="0" font-family="Sans Serif" font-weight="normal" text-anchor="start" style="mix-blend-mode: normal"><tspan x="0" dy="0">Kil0y</tspan><tspan x="0" dy="46.15px"> </tspan></text><text transform="translate(770.54888,195.67473) scale(2.90169,2.90169)" font-size="40" xml:space="preserve" fill="#000000" fill-rule="nonzero" stroke="none" stroke-width="1" stroke-linecap="butt" stroke-linejoin="miter" stroke-miterlimit="10" stroke-dasharray="" stroke-dashoffset="0" font-family="Sans Serif" font-weight="normal" text-anchor="start" style="mix-blend-mode: normal"><tspan x="0" dy="0">OS</tspan></text><text transform="translate(546.744,258.4052) scale(0.57314,0.57314)" font-size="40" xml:space="preserve" fill="#ffffff" fill-rule="nonzero" stroke="none" stroke-width="1" stroke-linecap="butt" stroke-linejoin="miter" stroke-miterlimit="10" stroke-dasharray="" stroke-dashoffset="0" font-family="Sans Serif" font-weight="normal" text-anchor="start" style="mix-blend-mode: normal"><tspan x="0" dy="0">A 32-bit microkernel operating system </tspan></text><path d="M-139.09213,185.27838c0,-8.09904 6.56557,-14.66459 14.66457,-14.66459c8.09904,0 14.66456,6.56555 14.66456,14.66459c0,8.09904 -6.56552,14.66456 -14.66456,14.66456c-8.09904,0 -14.66457,-6.56552 -14.66457,-14.66456z" fill="#ffffff" stroke="none" stroke-width="0" stroke-linecap="butt"/><path d="M287.53086,173.2665c0,-3.58203 2.90384,-6.48587 6.48587,-6.48587c3.58203,0 6.48587,2.90384 6.48587,6.48587c0,3.58203 -2.90382,6.48587 -6.48587,6.48587c-3.58203,0 -6.48587,-2.90382 -6.48587,-6.48587z" fill="#ffffff" stroke="#ffffff" stroke-width="0.5" stroke-linecap="butt"/><path d="M-226.15087,209.58744c0,-2.86565 2.32305,-5.1887 5.1887,-5.1887c2.86564,0 5.1887,2.32305 5.1887,5.1887c0,2.86565 -2.32307,5.18872 -5.1887,5.18872c-2.86564,0 -5.1887,-2.32307 -5.1887,-5.18872z" fill="#ffffff" stroke="#ffffff" stroke-width="0.5" stroke-linecap="butt"/><path d="M-61.72061,65.34709l-63.21203,119.94079l-95.62848,24.31233l-35.65806,83.20217" fill="none" stroke="#ffffff" stroke-width="0.5" stroke-linecap="round"/><path d="M-206.80646,64.80682l81.33354,122.10188l419.25249,-12.96656l42.68162,118.86023" fill="none" stroke="#ffffff" stroke-width="0.5" stroke-linecap="round"/><path d="M495.30171,64.80682l-203.14296,108.05477l-131.28654,-106.97423" fill="none" stroke="#ffffff" stroke-width="0.5" stroke-linecap="round"/><path d="M-508.27926,82.63585l287.42567,124.26299" fill="none" stroke="#ffffff" stroke-width="0.5" stroke-linecap="round"/><path d="M-136.03061,180.42542l7.02356,10.80548" fill="none" stroke="#ffffff" stroke-width="0.5" stroke-linecap="round"/><path d="M104.77537,292.30044l-229.40858,-106.39239" fill="none" stroke="#ffffff" stroke-width="0.5" stroke-linecap="round"/><text transform="translate(-107.42319,174.24305) scale(0.17146,0.17146)" font-size="40" xml:space="preserve" fill="#ffffff" fill-rule="nonzero" stroke="none" stroke-width="1" stroke-linecap="butt" stroke-linejoin="miter" stroke-miterlimit="10" stroke-dasharray="" stroke-dashoffset="0" font-family="Pixel" font-weight="normal" text-anchor="start" style="mix-blend-mode: normal"><tspan x="0" dy="0">core-kernel</tspan></text><text transform="translate(247.86991,190.34779) scale(0.21895,0.21895)" font-size="40" xml:space="preserve" fill="#ffffff" fill-rule="nonzero" stroke="none" stroke-width="1" stroke-linecap="butt" stroke-linejoin="miter" stroke-miterlimit="10" stroke-dasharray="" stroke-dashoffset="0" font-family="Pixel" font-weight="normal" text-anchor="start" style="mix-blend-mode: normal"><tspan x="0" dy="0">dev-ps2</tspan></text><text transform="translate(-228.86224,195.67277) scale(0.18051,0.18051)" font-size="40" xml:space="preserve" fill="#ffffff" fill-rule="nonzero" stroke="none" stroke-width="1" stroke-linecap="butt" stroke-linejoin="miter" stroke-miterlimit="10" stroke-dasharray="" stroke-dashoffset="0" font-family="Pixel" font-weight="normal" text-anchor="start" style="mix-blend-mode: normal"><tspan x="0" dy="0">node-001</tspan></text></g></g></svg>